<svg version="1.0" xmlns="http://www.w3.org/2000/svg"
 width="225.000000pt" height="225.000000pt" viewBox="0 0 225.000000 225.000000"
 preserveAspectRatio="xMidYMid meet">

<g transform="translate(0.000000,225.000000) scale(0.100000,-0.100000)"
fill="#000000" stroke="none">
<path d="M733 1890 c-46 -28 -53 -48 -53 -158 l0 -100 -33 -6 c-46 -9 -582
-381 -582 -404 0 -11 8 -17 20 -16 11 0 141 85 289 187 147 103 277 187 287
187 18 0 19 -11 19 -231 l0 -231 -40 -45 c-29 -33 -40 -55 -40 -78 0 -41 26
-73 65 -81 26 -5 47 5 140 67 349 231 397 259 437 259 32 0 47 -7 74 -34 29
-29 34 -41 34 -81 0 -41 -5 -51 -42 -89 -97 -99 -658 -606 -689 -623 -30 -16
-66 -19 -294 -23 -252 -5 -260 -6 -260 -25 0 -19 8 -20 239 -23 316 -3 327 0
470 135 34 32 75 69 91 83 l30 25 -22 -26 c-27 -30 -30 -77 -7 -125 30 -64
108 -103 179 -90 38 8 115 69 115 92 0 19 6 18 41 -8 47 -35 143 -33 191 4 22
17 43 46 53 72 l17 44 42 -19 c54 -25 92 -24 146 4 69 34 90 84 90 214 l0 103
190 0 190 0 32 29 33 29 3 456 c2 395 1 460 -13 486 -32 62 -8 60 -742 60
-644 0 -669 -1 -700 -20z m1389 -47 c12 -11 18 -30 18 -60 l0 -43 -705 0 -705
0 0 42 c0 84 -54 78 703 78 610 0 672 -1 689 -17z m18 -615 c0 -257 -2 -294
-17 -310 -15 -17 -42 -18 -446 -18 -427 0 -431 0 -456 -22 -14 -12 18 21 71
73 103 100 117 128 105 205 -15 93 -125 157 -213 124 -15 -6 -129 -77 -253
-159 -229 -149 -278 -180 -228 -141 l27 22 0 259 0 259 705 0 705 0 0 -292z
m-730 -533 c0 -167 -7 -198 -52 -229 -12 -9 -42 -16 -66 -16 -37 0 -50 6 -78
34 l-34 34 0 166 0 166 115 0 115 0 0 -155z m280 55 c0 -114 -12 -150 -60
-175 -57 -30 -127 -10 -155 45 -10 20 -15 59 -15 130 l0 100 115 0 115 0 0
-100z m-538 67 c-21 -22 -22 -33 -22 -176 0 -171 -9 -204 -61 -235 -45 -27
-106 -16 -141 24 -25 27 -28 38 -28 98 l0 67 133 122 c127 117 165 149 119
100z"/>
</g>
</svg>
